<svg xmlns="http://www.w3.org/2000/svg" width="48" height="48" fill="none" ><path fill="#2d2934" d="M4 4h40v40H4z"/><path d="M30.031 27.541l-3.558-3.556 3.556-3.556a1.75 1.75 0 0 0 0-2.474c-.684-.688-1.79-.686-2.474-.002l-3.558 3.556-3.558-3.56c-.684-.684-1.792-.68-2.476 0s-.682 1.794 0 2.476l3.56 3.56-3.552 3.55a1.75 1.75 0 0 0 0 2.474c.342.344.788.514 1.236.514a1.74 1.74 0 0 0 1.238-.512l3.552-3.552 3.56 3.558a1.74 1.74 0 0 0 1.236.512c.448 0 .896-.172 1.238-.512a1.75 1.75 0 0 0 0-2.476z" fill="#fff"/></svg>