<svg xmlns="http://www.w3.org/2000/svg" width="17" height="16" fill="#fff" xmlns:v="https://vecta.io/nano"><path d="M8.334 1.441l3.231.047c.781.034 1.203.166 1.484.275.372.144.641.319.919.597a2.46 2.46 0 0 1 .597.919c.109.281.241.706.275 1.484l.047 3.231-.047 3.231c-.034.781-.166 1.203-.275 1.484a2.47 2.47 0 0 1-.597.919 2.46 2.46 0 0 1-.919.597c-.281.109-.706.241-1.484.275l-3.231.047c-2.138 0-2.391-.009-3.231-.047-.781-.034-1.203-.166-1.484-.275a2.47 2.47 0 0 1-.919-.597 2.46 2.46 0 0 1-.597-.919c-.109-.281-.241-.706-.275-1.484L1.78 7.994l.047-3.231c.034-.781.166-1.203.275-1.484.144-.372.319-.641.597-.919a2.46 2.46 0 0 1 .919-.597c.281-.109.706-.241 1.484-.275l3.231-.047zm0-1.441L5.037.047c-.85.038-1.434.175-1.941.372-.528.206-.975.478-1.419.925A3.92 3.92 0 0 0 .752 2.76C.555 3.269.418 3.85.38 4.7L.333 8l.047 3.297c.037.85.175 1.434.372 1.941.206.528.478.975.925 1.419a3.91 3.91 0 0 0 1.416.922c.509.197 1.091.334 1.941.372l3.297.047 3.297-.047c.85-.037 1.434-.175 1.941-.372a3.91 3.91 0 0 0 1.416-.922 3.91 3.91 0 0 0 .922-1.416c.197-.509.334-1.091.372-1.941l.047-3.297-.047-3.297c-.038-.85-.175-1.434-.372-1.941a3.75 3.75 0 0 0-.916-1.422 3.91 3.91 0 0 0-1.416-.922c-.51-.196-1.091-.333-1.941-.371L8.334 0zm0 3.891A4.11 4.11 0 0 0 4.224 8a4.11 4.11 0 0 0 4.109 4.109A4.11 4.11 0 0 0 12.443 8a4.11 4.11 0 0 0-4.109-4.109zm0 6.775c-1.472 0-2.666-1.194-2.666-2.666s1.194-2.666 2.666-2.666S10.999 6.528 10.999 8s-1.194 2.666-2.666 2.666zm5.231-6.938a.96.96 0 0 1-.959.959.96.96 0 0 1-.959-.959.96.96 0 0 1 .959-.959.96.96 0 0 1 .959.959z"/></svg>