<svg xmlns="http://www.w3.org/2000/svg" width="16" height="17" fill="none" xmlns:v="https://vecta.io/nano"><path d="M14.816.522H1.181C.528.522 0 1.038 0 1.676v13.691a1.17 1.17 0 0 0 1.181 1.156h13.634c.653 0 1.184-.519 1.184-1.153V1.676c0-.637-.531-1.153-1.184-1.153zM4.747 14.157H2.372V6.519h2.375v7.637zM3.559 5.479c-.763 0-1.378-.616-1.378-1.375s.616-1.375 1.378-1.375 1.375.616 1.375 1.375-.616 1.375-1.375 1.375zm10.075 8.678h-2.372v-3.713c0-.884-.016-2.025-1.234-2.025-1.234 0-1.422.966-1.422 1.962v3.775H6.238V6.519h2.275v1.044h.031c.316-.6 1.091-1.234 2.244-1.234 2.403 0 2.847 1.581 2.847 3.638v4.191z" fill="#232536"/></svg>