<svg xmlns="http://www.w3.org/2000/svg" width="16" height="16" fill="none" ><path d="M14.816 0H1.181C.528 0 0 .516 0 1.153v13.691C0 15.481.528 16 1.181 16h13.634c.653 0 1.184-.519 1.184-1.153V1.153C16 .516 15.469 0 14.816 0zM4.747 13.634H2.372V5.997h2.375v7.638zM3.559 4.956c-.763 0-1.378-.616-1.378-1.375s.616-1.375 1.378-1.375 1.375.616 1.375 1.375-.616 1.375-1.375 1.375zm10.075 8.678h-2.372V9.922c0-.884-.016-2.025-1.234-2.025-1.234 0-1.422.966-1.422 1.963v3.775H6.238V5.997h2.275v1.044h.031c.316-.6 1.091-1.234 2.244-1.234 2.403 0 2.847 1.581 2.847 3.637v4.191z" fill="#fff"/></svg>