<svg xmlns="http://www.w3.org/2000/svg" width="120" height="25" fill="none" ><g clip-path="url(#A)" fill="#232536"><path d="M119.787 18.562v2.97h-2.491c-2.658-.084-4.078-1.519-4.078-4.215v-6.782h-1.739V7.929h1.739V5.013h3.676v2.886h2.81v2.597h-2.81v6.456c0 .874.174 1.572 1.519 1.572l1.374.038zm-22.959-3.805v-.197c-.04-.873.093-1.746.391-2.568s.756-1.577 1.346-2.222a6.64 6.64 0 0 1 4.619-2.151h.532c3.471 0 6.516 2.02 6.516 6.835v1.025h-9.645c.098 2.218 1.298 3.471 3.319 3.471 1.739 0 2.552-.759 2.787-1.868h3.471c-.425 2.894-2.734 4.504-6.387 4.504-4.011-.03-6.95-2.567-6.95-6.828zm9.79-1.602c-.129-2.02-1.147-2.992-2.916-2.992s-2.788 1.094-3.038 2.992h5.954zM81.82 14.757v-.197c-.04-.872.093-1.744.39-2.565s.753-1.575 1.342-2.22a6.64 6.64 0 0 1 2.09-1.537c.791-.37 1.647-.581 2.519-.62h.532c3.471 0 6.524 2.02 6.524 6.835v1.025H85.58c.099 2.218 1.299 3.471 3.319 3.471 1.739 0 2.552-.759 2.787-1.868h3.471c-.433 2.894-2.742 4.504-6.395 4.504-4.003-.03-6.942-2.567-6.942-6.828zm9.79-1.602c-.129-2.02-1.147-2.992-2.916-2.992s-2.757 1.124-3.038 2.985l5.954.008zM60.76 7.899h3.889l2.377 9.008 2.605-9.008h3.038l2.355 9.008 2.506-9.008h3.562l-4.223 13.382h-3.645l-2.279-8.4-2.438 8.4h-3.691L60.76 7.899zm-12.358 9.175h3.471c.16 1.208.76 1.899 2.355 1.899 1.428 0 2.089-.539 2.089-1.458s-.759-1.306-2.704-1.58c-3.562-.539-4.937-1.565-4.937-4.177 0-2.787 2.552-4.17 5.316-4.17 2.97 0 5.21 1.078 5.529 4.154h-3.425a1.82 1.82 0 0 0-.202-.68c-.111-.211-.264-.398-.448-.55a1.81 1.81 0 0 0-1.332-.403H54c-1.2 0-1.899.562-1.899 1.382s.645 1.177 2.605 1.458c3.327.501 5.187 1.344 5.187 4.208s-2.104 4.398-5.628 4.398-5.764-1.587-5.863-4.481zM33.653 7.899h3.676v2.119a4.6 4.6 0 0 1 4.337-2.43c2.605 0 4.496 1.587 4.496 5.21v8.514h-3.63V13.33c0-1.815-.706-2.681-2.347-2.681a2.63 2.63 0 0 0-1.028.114c-.332.106-.64.275-.906.499a2.64 2.64 0 0 0-.645.809 2.62 2.62 0 0 0-.285.994 2.08 2.08 0 0 0 0 .486v7.732h-3.668V7.899zM26.56 4.534a1.85 1.85 0 0 1 .275-1.041c.193-.312.474-.56.807-.712s.705-.202 1.067-.143a1.86 1.86 0 0 1 .967.474 1.85 1.85 0 0 1 .471 2.006c-.129.343-.356.641-.654.855a1.85 1.85 0 0 1-1.019.347h-.068a1.73 1.73 0 0 1-1.666-.97 1.74 1.74 0 0 1-.172-.655 1.21 1.21 0 0 1-.008-.159zm0 3.365h3.714v13.382h-3.699L26.56 7.899zM12.563 2.992h11.742v3.243H16.71v4.838h6.015v3.122h-6.023v7.086h-4.139V2.992zM5.476 8.977c0 1.147 0 2.544-1.58 3.114 1.618.554 1.58 1.732 1.58 2.962v4.557c0 .866.349 1.39.972 1.519a1.18 1.18 0 0 0 .425.061h1.519v3.038H5.886c-2.673 0-4.147-1.519-4.147-4.337v-5.392a1.11 1.11 0 0 0-1.086-1.033H0V10.8h.653a1.1 1.1 0 0 0 1.086-1.063V4.268C1.739 1.496 3.182 0 5.886 0h2.529v2.992H6.896a1.38 1.38 0 0 0-.425.068c-.623.159-.972.676-.972 1.519l-.023 4.397z"/></g><defs><clipPath id="A"><path fill="#fff" d="M0 0h120v24.304H0z"/></clipPath></defs></svg>