<svg xmlns="http://www.w3.org/2000/svg" width="122" height="25" fill="none" ><g clip-path="url(#A)" fill="#fff"><path d="M121.784 18.871v3.019h-2.533c-2.702-.085-4.146-1.544-4.146-4.285V10.71h-1.769V8.061h1.769V5.096h3.737V8.03h2.857v2.641h-2.857v6.563c0 .888.177 1.598 1.544 1.598l1.398.039zm-23.342-3.868v-.201a6.77 6.77 0 0 1 .398-2.611 6.76 6.76 0 0 1 3.498-3.821 6.77 6.77 0 0 1 2.566-.626h.541c3.529 0 6.625 2.054 6.625 6.949v1.042h-9.806c.1 2.255 1.32 3.529 3.374 3.529 1.768 0 2.594-.772 2.834-1.899h3.529c-.433 2.942-2.78 4.579-6.494 4.579-4.077-.031-7.065-2.61-7.065-6.942zm9.953-1.629c-.132-2.054-1.166-3.042-2.965-3.042s-2.834 1.112-3.089 3.042h6.054zm-25.211 1.629v-.201a6.75 6.75 0 0 1 .396-2.608c.302-.835.766-1.602 1.365-2.257a6.78 6.78 0 0 1 2.125-1.563c.804-.377 1.674-.59 2.561-.63h.54c3.529 0 6.633 2.054 6.633 6.949v1.042h-9.799c.1 2.255 1.32 3.529 3.374 3.529 1.768 0 2.594-.772 2.834-1.899h3.529c-.44 2.942-2.788 4.579-6.502 4.579-4.069-.031-7.057-2.61-7.057-6.942zm9.953-1.629c-.131-2.054-1.166-3.042-2.965-3.042s-2.803 1.143-3.089 3.035l6.054.008zM61.773 8.03h3.953l2.417 9.158 2.648-9.158h3.089l2.394 9.158 2.548-9.158h3.621L78.15 21.636h-3.706l-2.317-8.54-2.479 8.54h-3.753L61.773 8.03zm-12.564 9.328h3.529c.162 1.228.772 1.93 2.394 1.93 1.452 0 2.123-.548 2.123-1.482s-.772-1.328-2.749-1.606c-3.621-.548-5.019-1.591-5.019-4.247 0-2.834 2.594-4.239 5.405-4.239 3.019 0 5.297 1.096 5.621 4.224h-3.482a1.82 1.82 0 0 0-.206-.691 1.84 1.84 0 0 0-1.81-.968H54.9c-1.22 0-1.93.571-1.93 1.405s.656 1.197 2.648 1.483c3.382.51 5.274 1.367 5.274 4.278s-2.139 4.471-5.722 4.471-5.861-1.614-5.961-4.556zM34.214 8.03h3.737v2.154a4.68 4.68 0 0 1 4.409-2.471c2.648 0 4.571 1.614 4.571 5.297v8.656H43.24v-8.115c0-1.845-.718-2.726-2.386-2.726a2.68 2.68 0 0 0-1.045.115c-.337.107-.65.279-.921.508s-.493.507-.656.822-.261.658-.29 1.011a2.15 2.15 0 0 0 0 .494v7.861h-3.729V8.03zm-7.212-3.42c-.013-.373.084-.741.28-1.058s.481-.569.821-.724.717-.206 1.085-.146.71.227.983.482.464.584.549.947.061.743-.07 1.092a1.88 1.88 0 0 1-.665.869 1.89 1.89 0 0 1-1.036.353h-.07a1.76 1.76 0 0 1-1.868-1.652 1.14 1.14 0 0 1-.008-.162zm0 3.421h3.776v13.605h-3.76L27.002 8.03zm-14.23-4.989H24.71v3.297h-7.722v4.919h6.116v3.174H16.98v7.204h-4.208V3.042zM5.567 9.127c0 1.166 0 2.587-1.606 3.166 1.645.564 1.606 1.761 1.606 3.011v4.633c0 .88.355 1.413.988 1.544a1.2 1.2 0 0 0 .432.062h1.544v3.089H5.984c-2.718 0-4.216-1.544-4.216-4.409V14.74c-.019-.281-.143-.545-.348-.74s-.474-.305-.756-.31H0v-2.71h.664a1.12 1.12 0 0 0 1.104-1.081v-5.56C1.768 1.521 3.235 0 5.984 0h2.571v3.042H7.011c-.147 0-.293.024-.432.069-.633.162-.988.687-.988 1.544l-.023 4.471z"/></g><defs><clipPath id="A"><path fill="#fff" d="M0 0h122v24.709H0z"/></clipPath></defs></svg>