<svg xmlns="http://www.w3.org/2000/svg" width="17" height="14" fill="none" ><path d="M5.7 13.023c6.036 0 9.339-5.002 9.339-9.339 0-.141-.003-.284-.009-.425.643-.465 1.197-1.04 1.637-1.699a6.47 6.47 0 0 1-1.884.516A3.3 3.3 0 0 0 16.226.26a6.6 6.6 0 0 1-2.084.797C13.647.53 12.993.182 12.28.065s-1.444.005-2.081.345-1.144.882-1.443 1.539-.372 1.396-.21 2.099c-1.305-.065-2.581-.404-3.746-.995S2.606 1.636 1.782.622c-.419.722-.547 1.577-.359 2.391s.68 1.525 1.374 1.989c-.521-.017-1.031-.157-1.487-.409v.041a3.28 3.28 0 0 0 2.634 3.219c-.483.132-.99.151-1.481.056a3.29 3.29 0 0 0 3.065 2.281c-1.163.913-2.599 1.409-4.077 1.406a6.57 6.57 0 0 1-.784-.048c1.502.963 3.249 1.475 5.033 1.474z" fill="#232536"/></svg>